{"title":"WWE.Fastlane.2016.02.21.HDTV.XviD-FICEK9","uid":13732647,"size":1564572152,"categoryP":"video","categoryS":"tv_shows","magnet":"?xt=urn:btih:aac9d69f79e10cb48a15995a9a3fe9d95f5a746b&amp;dn=WWE.Fastlane.2016.02.21.HDTV.XviD-FICEK9&amp;tr=udp%3A%2F%2Ftracker.leechers-paradise.org%3A6969&amp;tr=udp%3A%2F%2Fzer0day.ch%3A1337&amp;tr=udp%3A%2F%2Fopen.demonii.com%3A1337&amp;tr=udp%3A%2F%2Ftracker.coppersurfer.tk%3A6969&amp;tr=udp%3A%2F%2Fexodus.desync.com%3A6969","seeders":0,"leechers":1,"uploader":"FICEK9","files":2,"time":1457025850,"description":"\n      Complete name : WWE.Fastlane.2016.02.21.HDTV.XviD-FICEK9.avi\r\n      Format : AVI\r\n      Format/Info : Audio Video Interleave\r\n      Format profile : OpenDML\r\n      File size : 1.46 GiB\r\n      Duration : 2h 48mn\r\n      Overall bit rate mode : Variable\r\n      Overall bit rate : 1 237 Kbps\r\n      Writing application : MEncoder SVN-r33883(20110719-gcc4.5.2)\r\n      Writing library : MPlayer\r\n   Video #0\r\n      ID : 0\r\n      Format : MPEG-4 Visual\r\n      Format profile : Advanced   \r\n      Format settings, BVOP : 2\r\n      Format settings, QPel : No\r\n      Format settings, GMC : No warppoints\r\n      Format settings, Matrix : Default (H.263)\r\n      Codec ID : XVID\r\n      Codec ID/Hint : XviD\r\n      Duration : 2h 48mn\r\n      Bit rate : 1 100 Kbps\r\n      Width : 624 pixels\r\n      Height : 352 pixels\r\n      Display aspect ratio : 16:9\r\n      Frame rate : 29.970 fps\r\n      Color space : YUV\r\n      Chroma subsampling : 4:2:0\r\n      Bit depth : 8 bits\r\n      Scan type : Progressive\r\n      Compression mode : Lossy\r\n      Bits/(Pixel*Frame) : 0.167\r\n      Stream size : 1.30 GiB (89%)\r\n      Writing library : XviD 1.2.1 (UTC 2008-12-04)\r\n   Audio #1\r\n      ID : 1\r\n      Format : MPEG Audio\r\n      Format version : Version 1\r\n      Format profile : Layer 3\r\n      Mode : Joint stereo\r\n      Mode extension : MS Stereo\r\n      Codec ID : 55\r\n      Codec ID/Hint : MP3\r\n      Duration : 2h 48mn\r\n      Bit rate mode : Variable\r\n      Bit rate : 121 Kbps\r\n      Channel(s) : 2 channels\r\n      Sampling rate : 48.0 KHz\r\n      Compression mode : Lossy\r\n      Stream size : 146 MiB (10%)\r\n      Alignment : Aligned on interleaves\r\n      Interleave, duration : 24 ms (0.72 video frame)\r\n      Interleave, preload duration : 142 ms\r\n      Writing library : LAME3.98","torrent":{"xt":"urn:btih:aac9d69f79e10cb48a15995a9a3fe9d95f5a746b","amp;dn":"WWE.Fastlane.2016.02.21.HDTV.XviD-FICEK9","amp;tr":["udp%3A%2F%2Ftracker.leechers-paradise.org%3A6969","udp%3A%2F%2Fzer0day.ch%3A1337","udp%3A%2F%2Fopen.demonii.com%3A1337","udp%3A%2F%2Ftracker.coppersurfer.tk%3A6969","udp%3A%2F%2Fexodus.desync.com%3A6969"],"infoHash":"aac9d69f79e10cb48a15995a9a3fe9d95f5a746b","infoHashBuffer":{"type":"Buffer","data":[170,201,214,159,121,225,12,180,138,21,153,90,154,63,233,217,95,90,116,107]},"announce":[],"urlList":[]}}